<?xml version="1.0" standalone="no"?>
<!DOCTYPE svg PUBLIC "-//W3C//DTD SVG 20010904//EN"
 "http://www.w3.org/TR/2001/REC-SVG-20010904/DTD/svg10.dtd">
<svg version="1.0" xmlns="http://www.w3.org/2000/svg"
 width="652.000000pt" height="429.000000pt" viewBox="0 0 652.000000 429.000000"
 preserveAspectRatio="xMidYMid meet">

<g transform="translate(0.000000,429.000000) scale(0.100000,-0.100000)"
fill="#000000" stroke="none">
<path d="M2658 3736 c-15 -6 -42 -25 -59 -41 -87 -84 -92 -202 -13 -321 42
-63 143 -164 165 -164 26 0 153 141 184 205 39 79 44 148 15 206 -29 57 -67
97 -109 115 -40 17 -145 17 -183 0z m189 -56 c47 -28 67 -73 68 -152 0 -52 -4
-73 -21 -95 -48 -65 -168 -85 -237 -38 -87 59 -106 193 -39 268 25 29 50 36
127 36 53 1 78 -4 102 -19z"/>
<path d="M2680 3628 c-15 -8 -30 -30 -38 -52 -16 -50 -2 -96 41 -132 26 -22
38 -25 74 -21 54 6 91 30 99 64 8 31 -11 112 -31 132 -19 20 -114 25 -145 9z"/>
<path d="M3170 3664 c-8 -1 -47 -8 -85 -14 l-70 -11 0 -97 c0 -104 -12 -138
-74 -222 -39 -53 -153 -159 -178 -166 -31 -8 -81 25 -152 102 l-59 65 -30 -43
c-66 -97 -72 -117 -72 -250 0 -97 4 -130 18 -158 22 -45 58 -58 115 -41 211
63 268 69 313 32 31 -25 41 -49 64 -148 27 -115 57 -165 114 -192 64 -29 119
-37 135 -18 7 9 19 69 27 134 18 139 44 203 105 258 54 48 110 73 221 95 50
10 94 24 99 32 14 22 29 106 29 160 0 174 100 213 286 113 62 -33 84 -41 84
-29 0 8 -46 61 -102 118 -198 199 -416 289 -691 285 -45 -1 -89 -3 -97 -5z"/>
<path d="M3960 3471 c0 -19 39 -40 93 -50 81 -15 134 -40 193 -94 44 -40 54
-56 69 -111 21 -76 13 -144 -29 -248 -27 -68 -35 -125 -15 -112 20 12 77 147
89 212 37 188 -63 331 -270 386 -73 19 -130 27 -130 17z"/>
<path d="M3767 3282 c-10 -11 -18 -44 -22 -87 -17 -202 -33 -225 -175 -254
-201 -40 -263 -110 -285 -324 -11 -107 -15 -121 -39 -145 -23 -24 -34 -27 -84
-25 -32 1 -72 9 -88 18 -16 8 -34 15 -40 15 -16 0 -70 61 -92 105 -19 39 -52
157 -52 186 0 8 -9 25 -20 37 -29 31 -90 29 -200 -8 -56 -19 -111 -30 -144
-30 -51 0 -56 2 -90 42 -26 30 -37 54 -42 90 -8 59 -15 54 -31 -20 -16 -78
-16 -181 1 -278 15 -83 79 -270 99 -290 8 -7 127 -15 337 -23 610 -21 621 -22
628 -39 3 -9 -5 -23 -20 -36 -141 -116 -328 -267 -359 -290 -21 -16 -39 -35
-39 -41 0 -15 79 -35 172 -42 l78 -6 0 55 c0 141 76 208 237 208 35 0 80 8
113 21 70 27 220 124 335 220 135 110 173 139 184 139 6 0 11 5 11 10 0 6 6
10 14 10 7 0 19 6 25 14 12 15 41 162 41 210 0 29 0 29 -42 -20 -24 -27 -54
-59 -68 -72 -14 -12 -56 -51 -95 -86 -38 -35 -86 -74 -106 -87 -20 -13 -70
-47 -110 -75 -89 -61 -228 -134 -257 -134 -25 0 -36 15 -25 34 4 8 46 34 93
58 47 24 112 62 145 84 33 22 78 53 100 67 77 52 290 256 332 319 31 46 28 74
-19 224 -30 97 -34 103 -77 132 -102 67 -245 132 -291 132 -9 0 -24 -8 -33
-18z"/>
<path d="M2265 2591 c-31 -62 -65 -185 -64 -231 1 -53 33 -134 54 -138 19 -4
19 7 -4 93 -6 22 -8 58 -5 80 7 52 43 163 55 170 12 8 12 75 -1 75 -5 0 -21
-22 -35 -49z"/>
<path d="M4135 2424 c-58 -43 -86 -65 -154 -122 -95 -79 -251 -184 -316 -213
-73 -33 -143 -49 -208 -49 -32 0 -71 -7 -86 -15 -35 -18 -61 -78 -61 -142 l0
-46 84 6 c293 23 571 217 730 510 40 72 43 95 11 71z"/>
<path d="M2445 2234 c81 -121 75 -116 131 -104 22 4 157 25 301 46 144 21 259
42 255 46 -4 4 -122 12 -262 17 -140 6 -298 14 -350 18 l-94 6 19 -29z"/>
<path d="M3049 2156 c-4 -4 -79 -17 -353 -61 -49 -8 -104 -15 -122 -15 -33 0
-74 -31 -74 -55 0 -5 -9 -27 -20 -48 -26 -47 -27 -71 -2 -58 9 5 91 37 182 71
386 146 444 169 419 170 -14 0 -28 -2 -30 -4z"/>
<path d="M3209 2140 c-9 -5 -60 -25 -115 -45 -229 -82 -424 -161 -424 -170 0
-11 102 -140 110 -140 7 0 366 280 439 342 26 22 20 31 -10 13z"/>
<path d="M311 1320 c2 -101 5 -130 16 -130 10 0 13 21 14 83 l1 82 26 -82 c22
-72 28 -83 48 -83 19 0 25 8 34 43 6 23 17 60 23 82 12 39 12 39 15 -42 l3
-83 34 0 35 0 0 130 0 130 -38 0 -39 0 -23 -77 -23 -78 -20 78 -21 77 -44 0
-43 0 2 -130z"/>
<path d="M620 1320 l0 -130 35 0 35 0 0 130 0 130 -35 0 -35 0 0 -130z"/>
<path d="M740 1320 l0 -130 40 0 40 0 0 60 0 60 30 0 30 0 0 -60 0 -60 40 0
40 0 0 130 0 130 -40 0 -40 0 0 -55 c0 -54 0 -55 -30 -55 -30 0 -30 1 -30 55
l0 55 -40 0 -40 0 0 -130z"/>
<path d="M1000 1320 l0 -130 40 0 40 0 0 130 0 130 -40 0 -40 0 0 -130z"/>
<path d="M1102 1438 c3 -7 19 -14 36 -16 l32 -3 0 -115 0 -114 40 0 40 0 0
115 0 115 35 0 c24 0 35 5 35 15 0 12 -19 15 -111 15 -84 0 -110 -3 -107 -12z"/>
<path d="M1340 1320 l0 -130 40 0 40 0 0 60 0 60 30 0 30 0 0 -61 0 -60 38 3
37 3 3 128 3 127 -40 0 -40 0 -3 -52 c-3 -49 -5 -53 -30 -56 -28 -3 -28 -2
-28 52 l0 56 -40 0 -40 0 0 -130z"/>
<path d="M1720 1320 l0 -131 107 3 c105 3 107 3 113 28 5 20 13 26 44 28 34 3
38 0 49 -27 10 -27 16 -31 48 -31 l37 0 -24 88 c-14 48 -29 106 -36 130 -10
42 -12 43 -46 40 l-36 -3 -35 -118 c-26 -88 -38 -116 -49 -112 -7 3 -34 5 -58
5 l-44 0 0 115 0 115 -35 0 -35 0 0 -130z m290 -17 c0 -18 -6 -23 -25 -23 -29
0 -28 -3 -13 58 l12 47 12 -30 c7 -17 13 -40 14 -52z"/>
<path d="M2140 1320 c0 -109 2 -130 15 -130 12 0 15 16 15 82 l0 81 53 -81
c47 -75 55 -82 85 -82 l32 0 0 130 c0 107 -3 130 -15 130 -11 0 -15 -18 -17
-84 l-3 -84 -55 83 c-47 71 -59 84 -82 85 l-28 0 0 -130z"/>
<path d="M2380 1320 l0 -130 40 0 39 0 3 58 3 57 33 -57 34 -58 58 0 c57 0 59
1 65 30 6 26 11 30 39 30 36 0 56 -15 56 -42 0 -14 8 -18 40 -18 22 0 40 3 40
8 -1 4 -16 61 -33 127 l-33 120 -35 3 -36 3 -27 -93 c-45 -151 -47 -158 -51
-158 -2 0 -25 38 -50 85 l-47 85 31 37 c26 31 29 39 15 41 -9 2 -22 -4 -29
-15 -7 -10 -27 -35 -44 -57 l-31 -39 0 57 0 56 -40 0 -40 0 0 -130z m344 -7
c7 -32 6 -33 -23 -33 -17 0 -31 1 -31 3 0 2 7 25 17 52 17 52 22 49 37 -22z"/>
<path d="M2950 1435 c0 -10 11 -15 35 -15 l35 0 0 -115 0 -115 40 0 40 0 0
115 0 115 30 0 c20 0 30 5 30 15 0 12 -18 15 -105 15 -87 0 -105 -3 -105 -15z"/>
<path d="M3204 1427 c-31 -27 -43 -80 -33 -146 9 -63 44 -91 113 -91 57 0 89
20 107 67 24 63 -1 161 -48 182 -42 19 -109 14 -139 -12z m110 -19 c3 -13 6
-55 6 -94 0 -77 -14 -109 -46 -102 -17 3 -19 13 -22 88 -4 109 2 130 32 130
16 0 26 -7 30 -22z"/>
<path d="M3442 1339 c3 -102 5 -112 27 -130 35 -29 121 -26 149 4 20 21 22 34
22 130 0 65 -4 107 -10 107 -6 0 -10 -39 -10 -98 0 -116 -9 -135 -60 -130
l-35 3 -3 113 -3 112 -40 0 -41 0 4 -111z"/>
<path d="M3680 1320 l0 -130 40 0 40 0 0 61 c0 57 1 60 23 57 19 -3 23 -10 27
-58 l5 -55 39 -3 39 -3 -7 53 c-4 31 -14 58 -24 66 -15 11 -14 14 6 28 15 10
22 25 22 48 0 50 -31 66 -130 66 l-80 0 0 -130z m128 98 c27 -27 3 -88 -34
-88 -10 0 -14 13 -14 50 0 41 3 50 18 50 10 0 23 -5 30 -12z"/>
<path d="M3970 1437 c-13 -7 -28 -26 -34 -44 -12 -44 10 -76 74 -108 40 -20
50 -30 50 -51 0 -23 -3 -25 -42 -22 -39 3 -44 6 -53 36 -11 38 -35 43 -35 7 0
-40 33 -65 85 -65 59 0 92 16 104 53 17 46 -4 77 -74 112 -43 22 -60 36 -60
50 0 15 8 21 33 23 38 4 62 -12 62 -39 0 -12 5 -16 15 -13 22 9 18 41 -7 58
-27 19 -84 20 -118 3z"/>
<path d="M4329 1431 c-22 -17 -23 -22 -13 -59 10 -38 9 -40 -18 -56 -36 -22
-39 -72 -5 -104 19 -18 34 -21 114 -21 l92 0 -19 31 c-16 27 -17 35 -6 57 23
46 28 81 11 81 -9 0 -15 -9 -15 -23 0 -13 -6 -32 -14 -42 -13 -18 -14 -17 -30
13 -15 29 -15 35 -1 54 18 27 20 59 3 76 -18 18 -73 14 -99 -7z m85 -16 c7
-20 -3 -45 -19 -45 -13 0 -25 21 -25 46 0 19 36 18 44 -1z m-37 -153 l25 -42
-24 0 c-27 0 -63 51 -54 76 9 23 26 13 53 -34z"/>
<path d="M4630 1435 c0 -10 11 -15 35 -15 l35 0 0 -115 0 -115 40 0 40 0 0
115 0 115 30 0 c20 0 30 5 30 15 0 12 -18 15 -105 15 -87 0 -105 -3 -105 -15z"/>
<path d="M4862 1323 l3 -128 38 -3 37 -3 0 61 c0 58 1 61 23 58 17 -2 23 -10
25 -38 5 -74 9 -80 51 -80 l38 0 -8 52 c-5 29 -15 58 -24 64 -19 14 -19 24 -2
24 21 0 38 46 27 74 -14 37 -40 46 -130 46 l-81 0 3 -127z m126 95 c19 -19 15
-66 -7 -78 -34 -18 -41 -12 -41 40 0 41 3 50 18 50 10 0 23 -5 30 -12z"/>
<path d="M5131 1332 c-19 -64 -37 -123 -39 -129 -9 -28 24 -11 35 18 11 27 15
30 49 27 31 -2 39 -8 44 -28 5 -21 13 -26 44 -28 45 -4 45 -18 0 151 l-28 107
-36 0 -35 0 -34 -118z m68 -34 c1 -13 -7 -18 -24 -18 -28 0 -30 8 -14 65 l12
40 13 -35 c7 -19 13 -43 13 -52z"/>
<path d="M5310 1443 c0 -5 15 -63 32 -130 l33 -123 36 0 36 0 33 118 c18 64
35 123 38 130 2 6 -2 12 -11 12 -9 0 -22 -27 -37 -82 -13 -46 -26 -89 -30 -97
-5 -8 -17 25 -31 83 l-23 96 -38 0 c-21 0 -38 -3 -38 -7z"/>
<path d="M5540 1320 l0 -130 95 0 c52 0 95 4 95 9 0 11 -36 21 -77 21 -32 0
-33 1 -33 44 0 43 0 44 40 50 22 3 40 11 40 16 0 6 -18 10 -40 10 l-40 0 0 40
0 40 45 0 c33 0 45 4 45 15 0 12 -16 15 -85 15 l-85 0 0 -130z"/>
<path d="M5760 1320 l0 -130 91 0 c68 0 90 3 87 13 -3 7 -26 13 -56 15 l-52 3
0 115 0 114 -35 0 -35 0 0 -130z"/>
<path d="M5976 1429 c-18 -14 -26 -30 -26 -53 0 -39 23 -65 78 -90 68 -31 69
-76 2 -76 -39 0 -50 11 -50 51 0 21 -29 27 -31 7 -5 -51 26 -78 91 -78 62 0
100 28 100 74 0 38 -34 73 -98 101 -33 14 -42 23 -40 39 6 40 84 32 94 -8 6
-26 34 -26 34 0 0 51 -103 73 -154 33z"/>
<path d="M2420 988 c-41 -11 -70 -35 -70 -56 0 -10 7 -12 27 -7 15 3 31 12 35
18 4 6 33 12 65 12 50 0 58 -3 57 -18 -2 -14 1 -15 12 -6 17 14 18 41 2 57
-14 14 -79 14 -128 0z"/>
<path d="M3895 982 c-57 -35 -83 -102 -39 -102 10 0 14 5 11 14 -6 16 49 76
70 76 22 0 14 -32 -27 -108 -44 -80 -44 -82 -31 -82 9 0 20 18 68 114 43 85
16 130 -52 88z"/>
<path d="M1503 970 c-34 -23 -61 -71 -70 -126 -4 -25 -2 -34 8 -34 19 0 42 37
27 42 -22 8 46 108 73 108 30 0 -37 -159 -81 -190 -29 -20 -66 -77 -57 -86 10
-11 35 12 74 67 43 59 66 72 77 44 7 -18 23 -19 59 -2 23 10 27 18 27 55 0 38
-2 42 -24 42 -16 0 -35 -13 -55 -37 -38 -46 -47 -40 -19 16 25 52 30 114 8
118 -8 2 -29 -6 -47 -17z m107 -117 c-1 -25 -14 -53 -26 -53 -17 0 -18 32 -2
48 13 13 28 16 28 5z"/>
<path d="M3128 930 c-17 -29 -30 -40 -47 -40 -16 0 -39 -16 -67 -47 -46 -50
-72 -52 -36 -3 45 60 17 69 -40 13 -21 -20 -38 -32 -38 -26 0 6 7 16 15 23 17
14 20 30 5 30 -6 0 -19 -13 -28 -30 -20 -34 -37 -40 -29 -9 8 31 -2 49 -27 49
-23 0 -66 -37 -66 -56 0 -13 -48 -59 -54 -53 -3 3 9 26 26 52 17 26 28 50 25
54 -4 3 -25 -13 -47 -36 -22 -22 -44 -41 -50 -41 -15 0 -12 7 15 34 14 14 25
30 25 36 0 21 -28 9 -52 -23 -19 -24 -23 -38 -17 -55 10 -27 26 -28 52 -4 15
13 14 6 -9 -35 -29 -55 -25 -86 6 -43 47 64 90 98 90 70 0 -12 37 -13 44 -1
10 16 56 20 56 5 0 -23 13 -16 47 23 l33 38 -15 -36 c-20 -52 -5 -64 35 -29
22 19 24 19 36 2 12 -16 14 -15 38 7 l26 24 0 -26 c0 -34 19 -35 50 -2 13 14
18 25 12 25 -6 0 -14 -4 -17 -10 -3 -5 -10 -10 -16 -10 -18 0 -8 36 26 93 19
32 35 62 35 68 0 21 -21 6 -42 -31z m-38 -67 c0 -10 -42 -53 -52 -53 -17 0 -7
28 15 43 24 17 37 21 37 10z m-262 -30 c-4 -32 -38 -46 -38 -16 0 20 18 43 33
43 4 0 7 -12 5 -27z"/>
<path d="M2430 915 c-13 -14 -32 -25 -42 -25 -11 0 -16 -4 -13 -10 3 -5 -1
-21 -10 -34 -26 -39 -6 -66 48 -66 46 0 107 31 107 54 0 18 -38 46 -63 46 -17
0 -17 2 3 30 27 38 5 42 -30 5z m56 -66 c10 -16 -15 -29 -58 -29 -39 0 -46 8
-26 28 15 15 75 16 84 1z"/>
<path d="M4480 924 c0 -9 5 -14 12 -12 18 6 21 28 4 28 -9 0 -16 -7 -16 -16z"/>
<path d="M4840 925 c-7 -8 -21 -15 -32 -15 -22 0 -38 -32 -19 -38 15 -5 -36
-62 -56 -62 -15 0 -18 26 -4 34 5 3 11 17 13 31 10 50 -56 26 -121 -44 -39
-41 -51 -34 -22 12 11 19 21 37 21 41 0 17 -30 2 -60 -29 -35 -36 -57 -41 -25
-5 10 11 15 23 11 28 -4 4 -22 -10 -39 -31 -18 -20 -40 -37 -49 -37 -23 0 -23
5 4 40 22 31 20 47 -6 37 -22 -9 -46 -61 -39 -85 6 -26 30 -28 61 -6 20 14 22
14 22 0 0 -25 17 -19 40 15 25 34 38 33 20 -1 -19 -36 4 -49 35 -20 25 23 25
23 39 4 14 -19 15 -18 40 5 l26 24 0 -26 c0 -34 8 -34 43 -2 26 24 27 25 27 5
0 -24 31 -27 50 -5 7 8 19 15 26 15 8 0 14 -7 14 -15 0 -20 29 -19 53 2 18 17
19 17 28 0 12 -21 28 -21 65 -3 25 13 29 13 40 -1 10 -15 14 -14 37 13 15 16
27 32 27 37 0 13 -18 7 -24 -8 -3 -8 -10 -15 -16 -15 -6 0 -2 14 10 30 17 24
18 30 6 30 -8 0 -23 -13 -33 -30 -21 -36 -32 -39 -26 -7 10 59 -51 61 -87 2
-13 -20 -30 -35 -41 -35 -25 0 -24 22 1 45 23 21 26 35 6 35 -8 0 -29 -18 -46
-40 -43 -54 -79 -53 -50 1 6 10 17 19 25 19 17 0 26 14 30 46 3 27 -7 31 -25
9z m-147 -87 c-18 -18 -35 -29 -39 -25 -9 9 15 37 41 47 32 13 32 12 -2 -22z
m299 -8 c-3 -21 -10 -30 -23 -30 -19 0 -17 20 4 48 16 21 24 14 19 -18z"/>
<path d="M4916 925 c-3 -9 0 -15 8 -15 8 0 16 7 20 15 3 9 0 15 -8 15 -8 0
-16 -7 -20 -15z"/>
<path d="M1733 858 c-44 -44 -74 -47 -33 -3 24 26 22 42 -4 32 -21 -8 -47 -62
-40 -81 8 -20 23 -20 46 1 17 15 18 15 18 -5 0 -33 19 -27 67 20 23 23 46 39
50 35 3 -4 1 -13 -5 -19 -15 -15 -16 -58 -1 -58 6 0 20 5 31 11 16 9 22 8 29
-2 6 -11 16 -6 39 21 21 23 29 28 25 15 -16 -46 -17 -55 -4 -55 7 0 23 10 36
21 20 20 23 20 29 5 8 -20 43 -21 71 -1 20 14 23 14 32 -2 8 -15 13 -16 30 -5
32 19 34 15 12 -22 -40 -64 -24 -73 29 -15 55 61 67 88 18 43 l-32 -29 21 35
c11 19 26 45 33 57 26 41 0 37 -36 -5 -19 -23 -43 -42 -52 -42 -12 0 -9 7 11
28 26 27 35 52 19 52 -4 0 -26 -18 -47 -40 -36 -37 -85 -54 -85 -30 0 6 5 10
11 10 5 0 7 5 3 11 -3 6 0 15 7 20 23 14 32 10 18 -8 -13 -15 -12 -15 9 -4 12
6 22 18 22 26 0 30 -43 14 -88 -32 -48 -50 -69 -45 -33 6 33 46 5 49 -40 5
-41 -40 -50 -40 -23 1 13 20 13 25 3 25 -8 0 -24 -16 -37 -35 -12 -19 -29 -35
-37 -35 -21 0 -19 12 6 44 24 31 24 31 -17 39 -35 7 -54 -7 -54 -38 0 -21 -17
-45 -32 -45 -14 0 -8 24 12 50 43 55 18 54 -37 -2z"/>
<path d="M3571 869 c-25 -31 -59 -54 -68 -45 -3 3 7 16 22 31 28 25 29 42 1
32 -24 -10 -48 -54 -41 -77 8 -24 22 -26 47 -3 17 15 18 15 18 -5 0 -31 16
-27 70 18 53 44 66 50 50 21 -26 -50 -1 -81 34 -42 17 19 17 19 -3 14 -25 -6
-27 5 -6 33 22 29 18 41 -17 47 -35 5 -48 -5 -48 -39 0 -12 -10 -25 -25 -32
-30 -14 -34 2 -10 34 16 21 20 44 8 44 -5 0 -19 -14 -32 -31z"/>
<path d="M4187 869 c-24 -20 -37 -39 -37 -55 0 -32 25 -41 50 -19 19 17 20 17
20 -3 0 -27 11 -28 41 -3 18 14 27 16 40 8 13 -8 24 -6 43 6 36 24 33 16 -14
-38 -39 -46 -49 -65 -31 -65 13 0 95 100 97 119 1 9 5 24 9 34 11 26 -8 20
-40 -13 -28 -29 -55 -39 -55 -20 0 13 39 48 62 56 24 7 23 24 -2 24 -12 0 -40
-20 -64 -45 -25 -25 -49 -45 -55 -45 -14 0 -14 1 4 43 19 47 19 47 -8 47 -12
0 -39 -14 -60 -31z m43 -19 c-9 -18 -40 -40 -54 -40 -17 0 -2 23 27 40 40 25
40 25 27 0z"/>
<path d="M2567 864 c-52 -48 -21 -105 39 -73 33 17 30 30 -6 22 -26 -5 -30 -3
-27 13 4 29 16 44 35 44 13 0 13 -2 -4 -15 -10 -8 -14 -15 -7 -15 14 0 43 27
43 41 0 19 -46 8 -73 -17z"/>
<path d="M3270 866 c-21 -24 -30 -69 -16 -84 4 -3 16 -1 26 6 31 19 33 14 11
-24 -39 -65 -24 -72 30 -14 31 34 52 50 55 43 7 -16 33 -16 66 -1 22 11 26 19
24 53 -1 33 -5 41 -22 43 -19 3 -62 -35 -76 -65 -1 -4 -16 -19 -32 -33 l-30
-25 23 35 c57 89 53 113 -7 48 -40 -43 -74 -48 -35 -5 30 33 36 47 20 47 -7 0
-24 -11 -37 -24z m164 -34 c-7 -33 -34 -45 -34 -15 0 16 30 57 37 50 2 -2 0
-18 -3 -35z"/>
<path d="M3972 867 c-22 -24 -31 -77 -12 -77 6 0 24 15 41 33 28 29 31 26 13
-18 -3 -8 -1 -15 6 -15 12 0 23 10 49 43 12 16 12 17 -5 11 -16 -6 -17 -5 -6
7 6 7 12 19 12 26 0 22 -25 14 -55 -17 -31 -33 -59 -42 -31 -11 26 29 15 47
-12 18z"/>
<path d="M4099 874 c-7 -9 -14 -23 -15 -32 -1 -10 -6 -27 -9 -39 -9 -30 15
-31 40 -3 17 18 17 20 2 14 -21 -8 -22 6 -2 32 27 36 13 62 -16 28z"/>
<path d="M5129 877 c-8 -7 -16 -21 -16 -32 -1 -11 -5 -32 -9 -47 -8 -36 14
-38 46 -3 23 25 16 37 -8 13 -18 -18 -16 13 3 38 27 35 16 56 -16 31z"/>
</g>
</svg>
